Coordinates
version=1
nRows=10
nColumns=46
inDegrees=yes

Units are S.I. units (second, meters, Newtons, ...)
Angles are in degrees.

endheader
time	pelvis_tilt	pelvis_list	pelvis_rotation	pelvis_tx	pelvis_ty	pelvis_tz	bb_angle	bb_tx	bb_ty	bb_tz	hip_flexion_r	hip_adduction_r	hip_rotation_r	knee_angle_r	knee_angle_r_beta	ankle_angle_r	subtalar_angle_r	mtp_angle_r	crank_angle_r	hip_flexion_l	hip_adduction_l	hip_rotation_l	knee_angle_l	knee_angle_l_beta	ankle_angle_l	subtalar_angle_l	mtp_angle_l	crank_angle_l	lumbar_extension	lumbar_bending	lumbar_rotation	arm_flex_r	arm_add_r	arm_rot_r	elbow_flex_r	pro_sup_r	wrist_flex_r	wrist_dev_r	arm_flex_l	arm_add_l	arm_rot_l	elbow_flex_l	pro_sup_l	wrist_flex_l	wrist_dev_l
      5.00000000	    -18.45750504	      7.82613169	      6.61004322	      0.16183997	      1.13379704	     -0.19421733	      0.00000000	      0.50000000	      0.00000000	      0.25000000	     31.69805254	    -11.48978386	     -1.86942806	     15.31530982	      0.26730258	    -11.85427132	     -3.43379877	      0.00000000	      0.00000000	     87.00379420	      5.38748294	      5.25818001	    105.98756702	      1.84983201	      7.62668091	     -2.56888258	      0.00000000	      0.00000000	    -62.55209391	    -11.00286835	    -23.09658207	     86.09268632	    -10.57377170	     42.81410826	     49.52153026	     36.54506757	      0.00000000	      0.00000000	     89.15890546	    -30.08262252	     33.29381972	     72.85809292	     47.15346523	      0.00000000	      0.00000000
      5.00500000	    -18.70769333	      7.94195464	      6.46502164	      0.16123916	      1.13434614	     -0.19494848	      0.00000000	      0.50000000	      0.00000000	      0.25000000	     32.14871630	    -11.56423509	     -1.46595927	     16.75926884	      0.29250442	    -11.54894530	     -4.20014989	      0.00000000	      0.00000000	     87.24055199	      5.13459611	      4.87985591	    105.14473858	      1.83512188	      9.37589912	     -2.38346558	      0.00000000	      0.00000000	    -62.50665141	    -11.32671465	    -22.96601011	     86.18714865	    -10.87860763	     42.56157530	     49.51080693	     36.67313893	      0.00000000	      0.00000000	     89.20033213	    -29.48304831	     33.12213694	     72.96455428	     47.01785571	      0.00000000	      0.00000000
      5.01000000	    -18.81061413	      7.89622670	      6.56378259	      0.16108229	      1.13559994	     -0.19572461	      0.00000000	      0.50000000	      0.00000000	      0.25000000	     32.37190336	    -11.58333587	     -1.34525304	     18.16416797	      0.31702454	    -11.47601262	     -5.05210039	      0.00000000	      0.00000000	     87.08681759	      5.08370948	      4.61547929	    104.02939217	      1.81565541	     11.21007500	     -2.83883140	      0.00000000	      0.00000000	    -62.62727933	    -11.28612590	    -22.87312190	     86.35453789	    -11.06367581	     42.39272031	     49.55583311	     36.72963166	      0.00000000	      0.00000000	     89.24191683	    -29.22739331	     33.06863788	     73.05591325	     46.96811361	      0.00000000	      0.00000000
      5.01500000	    -18.85063834	      7.92511146	      6.57449006	      0.16093363	      1.13697079	     -0.19676250	      0.00000000	      0.50000000	      0.00000000	      0.25000000	     32.78694563	    -11.63979218	     -1.00915581	     20.02603420	      0.34952023	    -11.30194355	     -6.21819717	      0.00000000	      0.00000000	     86.69576540	      4.91757267	      4.17549733	    102.70036837	      1.79245957	     13.04003851	     -3.16992277	      0.00000000	      0.00000000	    -62.84721055	    -11.30493356	    -22.76582743	     86.49177608	    -11.24198041	     42.21576272	     49.63451614	     36.79436387	      0.00000000	      0.00000000	     89.27574421	    -28.91004476	     33.02703505	     73.19914834	     46.92264312	      0.00000000	      0.00000000
      5.02000000	    -19.06180293	      8.05879639	      6.32543270	      0.16082406	      1.13804316	     -0.19764262	      0.00000000	      0.50000000	      0.00000000	      0.25000000	     33.64195816	    -11.59737745	      0.05590666	     22.19634803	      0.38739936	    -11.27211087	     -7.71891451	      0.00000000	      0.00000000	     86.34911894	      4.51693280	      3.73105354	    101.21278894	      1.76649641	     14.86174214	     -2.88630478	      0.00000000	      0.00000000	    -62.94893873	    -11.68550933	    -22.21113349	     86.07053256	    -12.46192648	     41.40097825	     50.99660544	     37.82187209	      0.00000000	      0.00000000	     89.30583171	    -27.59527828	     32.65813035	     73.09377126	     46.03951596	      0.00000000	      0.00000000
      5.02500000	    -18.96134646	      7.84544315	      6.34625969	      0.16086972	      1.13958175	     -0.19964616	      0.00000000	      0.50000000	      0.00000000	      0.25000000	     34.21767624	    -11.46357815	      0.51382462	     24.54900792	      0.42846102	    -11.39404653	     -8.78954443	      0.00000000	      0.00000000	     85.51889029	      4.76421633	      3.66535856	     99.51260356	      1.73682258	     16.69157071	     -3.96138936	      0.00000000	      0.00000000	    -63.20416141	    -11.30700968	    -21.89328989	     86.29688175	    -12.55087296	     41.28314155	     51.02193652	     37.86524557	      0.00000000	      0.00000000	     89.31605363	    -27.54784718	     32.65371770	     73.23347362	     46.01249913	      0.00000000	      0.00000000
      5.03000000	    -18.84715944	      8.14986711	      6.21966717	      0.16038168	      1.14113796	     -0.20099813	      0.00000000	      0.50000000	      0.00000000	      0.25000000	     35.26505137	    -11.68193545	      1.49850124	     27.64057995	      0.48241913	    -11.41458029	    -10.07296125	      0.00000000	      0.00000000	     84.55304605	      4.84714047	      3.04668558	     97.46632402	      1.70110826	     17.72497972	     -5.04429353	      0.00000000	      0.00000000	    -63.63443635	    -11.47014617	    -21.96331708	     86.40342127	    -12.86307325	     41.08731333	     51.16835278	     38.02734875	      0.00000000	      0.00000000	     89.35462754	    -27.35440878	     32.68143061	     73.54859858	     45.90729294	      0.00000000	      0.00000000
      5.03500000	    -18.82018971	      8.13665503	      6.20620108	      0.16043650	      1.14254035	     -0.20276310	      0.00000000	      0.50000000	      0.00000000	      0.25000000	     36.39479252	    -11.63949540	      2.38767394	     30.74960033	      0.53668177	    -11.71882110	    -11.20109861	      0.00000000	      0.00000000	     83.64189556	      4.99287708	      2.77131344	     95.34377968	      1.66406288	     18.74159443	     -6.02400086	      0.00000000	      0.00000000	    -63.87645206	    -11.29172888	    -21.80960301	     86.36135200	    -13.12602753	     40.77610570	     51.55818892	     38.26689833	      0.00000000	      0.00000000	     89.35834543	    -27.27698064	     32.68718004	     73.79374686	     45.74420696	      0.00000000	      0.00000000
      5.04000000	    -18.45532796	      7.80702923	      6.26383287	      0.16043904	      1.14433086	     -0.20456066	      0.00000000	      0.50000000	      0.00000000	      0.25000000	     37.16316462	    -11.27692319	      3.11193760	     33.84887258	      0.59077427	    -12.23236940	    -12.25310664	      0.00000000	      0.00000000	     82.41001944	      5.02514883	      2.76343552	     93.19064993	      1.62648367	     19.67000989	     -6.59945008	      0.00000000	      0.00000000	    -64.32951063	    -10.69737015	    -21.33558716	     86.55778311	    -13.20322153	     40.57635503	     51.70460112	     38.32314883	      0.00000000	      0.00000000	     89.35853040	    -27.33719044	     32.68799623	     73.86496396	     45.70621476	      0.00000000	      0.00000000
      5.04500000	    -18.34009767	      7.89370039	      6.36755772	      0.16033665	      1.14567723	     -0.20659204	      0.00000000	      0.50000000	      0.00000000	      0.25000000	     38.47431115	    -11.32443177	      4.06474171	     37.34335723	      0.65176454	    -12.70661876	    -13.53134273	      0.00000000	      0.00000000	     81.27830079	      5.51433263	      2.71386485	     90.78747637	      1.58454038	     20.12320689	     -7.35515129	      0.00000000	      0.00000000	    -64.64449880	    -10.45269953	    -21.30799926	     86.51063062	    -13.51951963	     40.19437556	     52.04280968	     38.46205143	      0.00000000	      0.00000000	     89.37376319	    -27.26309321	     32.76311244	     74.07865796	     45.63372873	      0.00000000	      0.00000000
